<?xml version="1.0" encoding="UTF-8"?>
<svg version="1.1" viewBox="0 0 100 60" xmlns="http://www.w3.org/2000/svg">
<title>AmericanExpress-dark</title>
<desc>Created with Sketch.</desc>
<g fill="none" fill-rule="evenodd">
<g transform="translate(-770 -164)">
<g transform="translate(770 164)">
<rect width="100" height="60" rx="4" fill="#0072CE"/>
<path d="m84.407 34.666h-3.533c-0.35274 0-0.58709 0.01317-0.7845 0.14609-0.2045 0.13097-0.28327 0.32534-0.28327 0.58191 0 0.3051 0.1727 0.51264 0.42393 0.60239 0.2045 0.07097 0.42417 0.0917 0.74707 0.0917l1.0506 0.028047c1.0602 0.026096 1.7679 0.20779 2.1994 0.65093 0.078523 0.061703 0.12573 0.13097 0.1798 0.20023v-2.3013zm0 5.332c-0.47089 0.68653-1.3885 1.0346-2.6306 1.0346h-3.7437v-1.7343h3.7285c0.36986 0 0.62867-0.048533 0.7845-0.20023 0.13503-0.12511 0.22921-0.30681 0.22921-0.52752 0-0.23559-0.094178-0.42265-0.23679-0.53484-0.14066-0.12341-0.3454-0.1795-0.68298-0.1795-1.8202-0.061703-4.091 0.056093-4.091-2.5032 0-1.1731 0.74707-2.4079 2.7813-2.4079h3.8613v-1.6091h-3.5876c-1.0827 0-1.8691 0.25852-2.4261 0.66044v-0.66044h-5.3065c-0.84859 0-1.8447 0.20974-2.3158 0.66044v-0.66044h-9.4761v0.66044c-0.75416-0.5424-2.0267-0.66044-2.614-0.66044h-6.2505v0.66044c-0.59663-0.57605-1.9234-0.66044-2.7322-0.66044h-6.9954l-1.6008 1.7272-1.4993-1.7272h-10.45v11.285h10.253l1.6495-1.7545 1.5538 1.7545 6.32 0.0056094v-2.6547h0.62133c0.83856 0.012926 1.8276-0.02073 2.7001-0.3968v3.0456h5.2128v-2.9412h0.25147c0.32094 0 0.3525 0.01317 0.3525 0.3329v2.6081h15.836c1.0054 0 2.0563-0.25657 2.6382-0.72214v0.72214h5.023c1.0453 0 2.0661-0.14609 2.8427-0.5202v-2.1023zm-7.7327-3.231c0.37745 0.38948 0.57975 0.88115 0.57975 1.7135 0 1.7399-1.0903 2.552-3.0453 2.552h-3.7757v-1.7343h3.7605c0.36766 0 0.62843-0.048533 0.79183-0.20023 0.13332-0.12511 0.22896-0.30681 0.22896-0.52752 0-0.23559-0.10347-0.42265-0.23655-0.53484-0.14824-0.12341-0.35274-0.1795-0.69032-0.1795-1.8129-0.061703-4.0832 0.056093-4.0832-2.5032 0-1.1731 0.73924-2.4079 2.7715-2.4079h3.8863v1.7213h-3.556c-0.3525 0-0.58171 0.01317-0.77667 0.14609-0.21233 0.13097-0.2911 0.32534-0.2911 0.58191 0 0.3051 0.18028 0.51264 0.42417 0.60239 0.2045 0.07097 0.42417 0.0917 0.75441 0.0917l1.0435 0.028047c1.0524 0.025608 1.7747 0.20706 2.2138 0.65044zm-17.492-0.49947c-0.2593 0.1534-0.57999 0.16657-0.9572 0.16657h-2.355v-1.8164h2.387c0.34516 0 0.69056 0.0073165 0.92515 0.14609 0.25122 0.13097 0.40142 0.38143 0.40142 0.72751s-0.1502 0.62483-0.40142 0.77628zm1.1707 1.0065c0.43151 0.15877 0.78425 0.44338 0.94961 0.67897 0.27373 0.39485 0.31336 0.76336 0.32119 1.4762v1.6033h-1.9462v-1.0119c0-0.48655 0.046967-1.207-0.31336-1.5831-0.28327-0.28973-0.71502-0.359-1.4222-0.359h-2.0717v2.9539h-1.9479v-8.0877h4.4756c0.98141 0 1.6962 0.043167 2.3324 0.38168 0.61179 0.36851 0.99658 0.87335 0.99658 1.796-2.446e-4 1.2909-0.86375 1.9496-1.374 2.1515zm2.4489-4.3292h6.4699v1.6726h-4.5394v1.4704h4.4286v1.6501h-4.4286v1.6091l4.5394 0.0073165v1.6782h-6.4699v-8.0877zm-13.079 3.7324h-2.5051v-2.0596h2.5277c0.69986 0 1.1857 0.28437 1.1857 0.99163 0 0.69946-0.46331 1.068-1.2082 1.068zm-4.4359 3.6197-2.9763-3.2944 2.9763-3.1898v6.4841zm-7.6862-0.94993h-4.7662v-1.6091h4.2559v-1.6501h-4.2559v-1.4704h4.8601l2.1204 2.3569-2.2143 2.3727zm15.412-3.7378c0 2.2467-1.6813 2.7105-3.3758 2.7105h-2.4188v2.7127h-3.7679l-2.387-2.6774-2.4807 2.6774h-7.6786v-8.0877h7.7968l2.385 2.651 2.4658-2.651h6.1943c1.5384 0 3.2669 0.4246 3.2669 2.6644z" fill="#fff"/>
<path d="m21.655 23.624-1.3268-3.2234-1.3192 3.2234h2.6461zm29.23-1.2836c-0.26639 0.16121-0.58146 0.16657-0.95891 0.16657h-2.355v-1.796h2.387c0.33782 0 0.69032 0.015121 0.91928 0.14584 0.25147 0.1178 0.40705 0.36851 0.40705 0.71482 0 0.35339-0.14799 0.63776-0.39946 0.76872zm16.8 1.2836-1.3415-3.2234-1.3342 3.2234h2.6756zm-31.316 3.489h-1.9873l-0.0073386-6.3327-2.8109 6.3327h-1.7021l-2.8183-6.3383v6.3383h-3.9428l-0.74487-1.8035h-4.0362l-0.75245 1.8035h-2.1054l3.4714-8.0857h2.8802l3.297 7.6555v-7.6555h3.1639l2.5369 5.4852 2.3305-5.4852h3.2275v8.0857h2.446e-4zm7.9205 0h-6.4758v-8.0857h6.4758v1.6838h-4.5372v1.4575h4.4283v1.6574h-4.4283v1.6148h4.5372v1.6723zm9.1307-5.9081c0 1.2892-0.86302 1.9552-1.366 2.1552 0.42417 0.16096 0.78645 0.44533 0.95891 0.68092 0.27373 0.40216 0.32094 0.76141 0.32094 1.4835v1.5884h-1.9552l-0.0073386-1.0197c0-0.48655 0.046722-1.1863-0.30602-1.5752-0.28327-0.28437-0.71502-0.34607-1.4129-0.34607h-2.081v2.941h-1.9384v-8.0857h4.4587c0.99071 0 1.7207 0.026096 2.3474 0.38729 0.61326 0.36119 0.98092 0.88847 0.98092 1.7904zm3.1023 5.9081h-1.978v-8.0857h1.978v8.0857zm22.947 0h-2.7471l-3.6744-6.0688v6.0688h-3.9479l-0.75441-1.8035h-4.0269l-0.7319 1.8035h-2.2684c-0.94227 0-2.1353-0.20779-2.8109-0.89432-0.68127-0.68653-1.0357-1.6165-1.0357-3.0868 0-1.1992 0.21184-2.2954 1.045-3.1617 0.62672-0.64532 1.6081-0.94286 2.944-0.94286h1.8767v1.7326h-1.8373c-0.70744 0-1.1069 0.10487-1.4917 0.47899-0.33048 0.34046-0.55724 0.98407-0.55724 1.8316 0 0.86628 0.1727 1.4909 0.53303 1.8989 0.29844 0.31998 0.84076 0.41704 1.351 0.41704h0.8706l2.7322-6.3588h2.9046l3.2821 7.648v-7.648h2.9516l3.4076 5.6313v-5.6313h1.9856v8.0855zm-64.031 1.5882h3.3121l0.74682-1.796h1.672l0.74487 1.796h6.5169v-1.3731l0.58171 1.3789h3.3831l0.58171-1.3994v1.3936h16.196l-0.0075832-2.9481h0.31336c0.21942 0.0075604 0.28351 0.027803 0.28351 0.38899v2.5591h8.3765v-0.68629c0.67564 0.36095 1.7265 0.68629 3.1094 0.68629h3.524l0.75416-1.796h1.672l0.73753 1.796h6.7909v-1.706l1.0284 1.706h5.4418v-11.277h-5.3855v1.3318l-0.75416-1.3318h-5.5262v1.3318l-0.69252-1.3318h-7.4646c-1.2495 0-2.3479 0.17389-3.2351 0.65849v-0.65849h-5.1512v0.65849c-0.56458-0.49947-1.3339-0.65849-2.1893-0.65849h-18.819l-1.2627 2.9127-1.2967-2.9127h-5.9276v1.3318l-0.65118-1.3318h-5.0553l-2.3476 5.3618v5.9154h2.447e-4z" fill="#fff"/>
</g>
</g>
</g>
</svg>
