<?xml version="1.0" encoding="UTF-8"?>
<svg version="1.1" viewBox="0 0 100 60" xmlns="http://www.w3.org/2000/svg" xmlns:xlink="http://www.w3.org/1999/xlink">
<title>Discover-dark</title>
<desc>Created with Sketch.</desc>
<defs>
<rect id="a" width="100" height="60" rx="4"/>
<mask id="d" x="0" y="0" width="100" height="60" fill="white">
<use xlink:href="#a"/>
</mask>
<mask id="c" x="0" y="0" width="100" height="60" fill="white">
<use xlink:href="#a"/>
</mask>
<path id="b" d="m24.115 60h71.885c2.2089 0 3.9996-1.7872 3.9996-3.9947v-22.307s-26.8 18.17-75.885 26.302z"/>
</defs>
<g fill="none" fill-rule="evenodd">
<g transform="translate(-610 -264)">
<g transform="translate(610 264)">
<mask fill="white">
<use xlink:href="#a"/>
</mask>
<g id="e" fill="#fff" mask="url(#d)" stroke="#E6772F" stroke-width="2">
<use mask="url(#c)" xlink:href="#a"/>
</g>
<mask fill="white">
<use xlink:href="#b"/>
</mask>
<use fill="#E7772F" xlink:href="#b"/>
<path d="m18.289 29.822c-0.75071 0.64189-1.7064 0.92258-3.2346 0.92258h-0.63413v-7.66h0.63413c1.5282 0 2.4472 0.2618 3.2346 0.93563 0.81276 0.69632 1.3012 1.7705 1.3012 2.8816 0 1.1165-0.48841 2.2289-1.3012 2.9202zm-2.7612-8.6995h-3.4696v11.585h3.4485c1.8352 0 3.1599-0.41788 4.321-1.34 1.3792-1.0922 2.1976-2.7412 2.1976-4.4496 0-3.42-2.67-5.7955-6.4974-5.7955z" fill="#1A1918"/>
<polygon points="23.114 21.122 25.467 21.122 25.467 32.708 23.114 32.708" fill="#1A1918"/>
<path d="m31.244 25.563c-1.4201-0.4984-1.8352-0.83037-1.8352-1.4565 0-0.72781 0.74178-1.2797 1.7618-1.2797 0.707 0 1.2894 0.27079 1.9099 0.93248l1.2283-1.542c-1.0149-0.85466-2.2296-1.2874-3.5538-1.2874-2.1426 0-3.7757 1.4264-3.7757 3.3125 0 1.6014 0.75917 2.4137 2.9746 3.1852 0.92605 0.30813 1.3966 0.51864 1.6349 0.66124 0.47196 0.29193 0.707 0.71027 0.707 1.1938 0 0.94237-0.78033 1.6351-1.8352 1.6351-1.123 0-2.0317-0.53799-2.5756-1.5483l-1.5221 1.4106c1.0882 1.5258 2.3927 2.2077 4.1898 2.2077 2.451 0 4.178-1.5703 4.178-3.8068 0-1.8429-0.80101-2.6782-3.487-3.6179" fill="#1A1918"/>
<path d="m35.473 26.918c0 3.4069 2.7946 6.0469 6.3921 6.0469 1.0144 0 1.8841-0.19162 2.9549-0.67518v-2.6625c-0.94627 0.90999-1.7769 1.2689-2.8515 1.2689-2.3772 0-4.061-1.6459-4.061-3.9944 0-2.219 1.7383-3.9769 3.9576-3.9769 1.1197 0 1.9753 0.37965 2.9549 1.3031v-2.6593c-1.0346-0.50065-1.8836-0.70802-2.9065-0.70802-3.5768 0-6.4405 2.6917-6.4405 6.0573" fill="#1A1918"/>
<polyline points="63.949 28.9 60.72 21.122 58.146 21.122 63.278 33 64.544 33 69.776 21.122 67.222 21.122 63.949 28.9" fill="#1A1918"/>
<polyline points="70.847 32.708 77.543 32.708 77.543 30.745 73.21 30.745 73.21 27.617 77.378 27.617 77.378 25.655 73.21 25.655 73.21 23.085 77.543 23.085 77.543 21.122 70.847 21.122 70.847 32.708" fill="#1A1918"/>
<path d="m82.154 26.45h-0.68537v-3.5041h0.72392c1.4751 0 2.2653 0.59241 2.2653 1.721 0 1.1596-0.7902 1.7831-2.3038 1.7831zm4.7351-1.909c0-2.1695-1.555-3.4182-4.281-3.4182h-3.5068v11.585h2.3673v-4.6579h0.30696l3.2619 4.6579h2.9046l-3.809-4.8828c1.7802-0.34816 2.7561-1.5114 2.7561-3.2841z" fill="#1A1918"/>
<path d="m58.479 26.945c0 3.3354-2.8242 6.0388-6.3113 6.0388-3.4861 0-6.3108-2.7034-6.3108-6.0388 0-3.3359 2.8247-6.0397 6.3108-6.0397 3.487 0 6.3113 2.7039 6.3113 6.0397" fill="#E7772F"/>
</g>
</g>
</g>
</svg>
