<?xml version="1.0" encoding="UTF-8"?>
<svg version="1.1" viewBox="0 0 100 60" xmlns="http://www.w3.org/2000/svg">
<title>MasterCard-dark</title>
<desc>Created with Sketch.</desc>
<g fill="none" fill-rule="evenodd">
<g transform="translate(-290 -164)">
<g transform="translate(290 164)">
<rect width="100" height="60" rx="4" fill="#006"/>
<path d="m56.129 30.485c0 10.778-8.7367 19.515-19.515 19.515-10.778 0-19.516-8.7363-19.516-19.515 0-10.778 8.7373-19.515 19.516-19.515 10.778 0 19.515 8.7373 19.515 19.515" fill="#c00"/>
<path d="m62.814 10.97c-5.0436 0-9.6375 1.913-13.101 5.0513-0.70469 0.63962-1.3625 1.3304-1.9697 2.066h3.9429c0.53847 0.65566 1.0347 1.3449 1.4877 2.0669h-6.9186c-0.41387 0.66337-0.79012 1.3526-1.1244 2.0669h9.1669c0.31333 0.66892 0.58904 1.3579 0.82651 2.066h-10.82c-0.22513 0.67293-0.41511 1.3625-0.56684 2.0657h11.953c0.28619 1.3323 0.43854 2.7145 0.43854 4.1326 0 2.1665-0.35312 4.2519-1.0048 6.1994h-10.82c0.23747 0.70747 0.51318 1.3974 0.82589 2.0672h9.1675c-0.33492 0.7124-0.70932 1.4023-1.1257 2.0666h-6.9168c0.45119 0.7198 0.94833 1.41 1.488 2.0647h3.9417c-0.60601 0.73615-1.2644 1.427-1.9713 2.0666 3.4636 3.1383 8.0572 5.05 13.101 5.05 10.778 0 19.515-8.7363 19.515-19.515 0-10.777-8.737-19.515-19.515-19.515" fill="#f90"/>
<path d="m32.057 32.622c-0.22236-0.025289-0.32043-0.033307-0.47308-0.033307-1.2009 0-1.8081 0.41202-1.8081 1.2259 0 0.50115 0.29637 0.81973 0.75897 0.81973 0.86321 0 1.4853-0.82158 1.5223-2.0123zm1.5411 3.587h-1.756l0.0404-0.83422c-0.53538 0.65874-1.2499 0.97331-2.2205 0.97331-1.1479 0-1.9352-0.89621-1.9352-2.1986 0-1.9605 1.369-3.1037 3.7193-3.1037 0.24086 0 0.54864 0.022205 0.86383 0.061988 0.065381-0.26584 0.082651-0.37871 0.082651-0.52212 0-0.53291-0.36885-0.73276-1.3585-0.73276-1.0365-0.010486-1.8914 0.24764-2.2427 0.36299 0.022205-0.13385 0.2939-1.8106 0.2939-1.8106 1.0553-0.31025 1.7517-0.42621 2.5354-0.42621 1.8196 0 2.7833 0.81664 2.7811 2.3605 0.0037008 0.41418-0.065072 0.92335-0.17147 1.595-0.18381 1.1658-0.57856 3.6659-0.63222 4.2744z" fill="#006"/>
<polyline points="26.84 36.209 24.721 36.209 25.935 28.6 23.225 36.209 21.781 36.209 21.603 28.643 20.327 36.209 18.344 36.209 20.001 26.31 23.047 26.31 23.231 31.851 25.09 26.31 28.478 26.31 26.84 36.209" fill="#006"/>
<path d="m65.432 32.622c-0.22236-0.025289-0.31919-0.033307-0.47154-0.033307-1.2018 0-1.8085 0.41202-1.8085 1.2259 0 0.50115 0.29514 0.81973 0.75897 0.81973 0.86259 0 1.4849-0.82158 1.521-2.0123zm1.542 3.587h-1.7554l0.039784-0.83422c-0.53538 0.65874-1.2496 0.97331-2.2196 0.97331-1.1494 0-1.9358-0.89621-1.9358-2.1986 0-1.9605 1.3696-3.1037 3.7193-3.1037 0.24055 0 0.54772 0.022205 0.86321 0.061988 0.065689-0.26584 0.082651-0.37871 0.082651-0.52212 0-0.53291-0.36885-0.73276-1.3585-0.73276-1.0365-0.010486-1.8911 0.24764-2.2436 0.36299 0.023438-0.13385 0.29576-1.8106 0.29576-1.8106 1.0547-0.31025 1.7517-0.42621 2.5341-0.42621 1.8208 0 2.7833 0.81664 2.7815 2.3605 0.0037008 0.41418-0.064456 0.92335-0.17147 1.595-0.18319 1.1658-0.57887 3.6659-0.63191 4.2744z" fill="#006"/>
<path d="m43.013 36.087c-0.5801 0.18257-1.0319 0.26152-1.5223 0.26152-1.0828 0-1.674-0.62235-1.674-1.7687-0.015112-0.35589 0.15574-1.2919 0.2902-2.1455 0.12274-0.75219 0.91903-5.4935 0.91903-5.4935h2.1054l-0.24579 1.2185h1.2721l-0.28712 1.9349h-1.2765c-0.24456 1.5306-0.59336 3.4377-0.59737 3.6906 0 0.41511 0.22143 0.59644 0.72566 0.59644 0.24148 0 0.42837-0.024672 0.57116-0.075866l-0.28064 1.7816" fill="#006"/>
<path d="m49.47 36.021c-0.72351 0.22112-1.4208 0.32906-2.1606 0.3266-2.3577-0.003084-3.5867-1.2336-3.5867-3.5913 0-2.7515 1.5633-4.7777 3.686-4.7777 1.736 0 2.8453 1.1343 2.8453 2.9125 0 0.5912-0.075866 1.1673-0.25998 1.9802h-4.1936c-0.14156 1.1679 0.60539 1.6543 1.8313 1.6543 0.7528 0 1.4331-0.15543 2.189-0.50608l-0.35065 2.0015zm-1.1836-4.7722c0.012028-0.16808 0.22297-1.4371-0.98071-1.4371-0.66984 0-1.15 0.51133-1.3446 1.4371h2.3253z" fill="#006"/>
<path d="m34.868 30.704c0 1.0174 0.49344 1.7196 1.6129 2.2473 0.85766 0.4037 0.9912 0.52305 0.9912 0.8885 0 0.50115-0.37871 0.72875-1.2166 0.72875-0.63253 0-1.2203-0.099305-1.8985-0.31858 0 0-0.27787 1.7751-0.29113 1.86 0.48141 0.10424 0.9107 0.20138 2.2047 0.23808 2.2353 0 3.2678-0.85118 3.2678-2.6908 0-1.1059-0.43176-1.7551-1.4933-2.2436-0.88788-0.4074-0.99058-0.49868-0.99058-0.87431 0-0.43515 0.3525-0.65751 1.0368-0.65751 0.41603 0 0.98379 0.04441 1.5226 0.12058l0.30131-1.8671c-0.54833-0.087277-1.3804-0.15636-1.8646-0.15636-2.3697 0-3.1904 1.2376-3.1827 2.725" fill="#006"/>
<path d="m59.774 28.192c0.58843 0 1.138 0.15297 1.8933 0.53446l0.34695-2.1483c-0.31148-0.12213-1.4035-0.83792-2.3287-0.83792-1.4174 0-2.6171 0.70438-3.4593 1.8643-1.2299-0.40709-1.736 0.41572-2.3552 1.2361l-0.55049 0.12829c0.041634-0.26985 0.079567-0.53785 0.06754-0.80955h-1.9466c-0.26522 2.4922-0.73615 5.0155-1.1047 7.5086l-0.096529 0.54155h2.1196c0.35373-2.2988 0.5471-3.7702 0.66491-4.7669l0.79814-0.44224c0.11997-0.4444 0.49221-0.59367 1.241-0.57547-0.097763 0.5249-0.15081 1.0779-0.15081 1.6499 0 2.634 1.423 4.2738 3.7026 4.2738 0.5875 0 1.092-0.0771 1.8732-0.2899l0.37131-2.2556c-0.70253 0.3451-1.2777 0.50763-1.7992 0.50763-1.2317 0-1.9771-0.90947-1.9771-2.4117 0-2.1801 1.1078-3.707 2.6902-3.707" fill="#006"/>
<path d="m77.711 26.31-0.47093 2.8598c-0.57825-0.76206-1.2006-1.3141-2.0222-1.3141-1.0689 0-2.0419 0.81047-2.6791 2.004-0.88727-0.18411-1.8041-0.49714-1.8041-0.49714l-6.168e-4 0.00771c0.070624-0.66707 0.10054-1.0729 0.093445-1.2117h-1.9463c-0.2643 2.4922-0.73584 5.0155-1.1041 7.5086l-0.097454 0.54155h2.1202c0.28619-1.8578 0.50485-3.4023 0.66614-4.6254 0.72474-0.65504 1.0874-1.2247 1.818-1.1876-0.32413 0.78395-0.51318 1.6863-0.51318 2.6121 0 2.0117 1.0171 3.34 2.5579 3.34 0.77655 0 1.3724-0.268 1.9534-0.8885l-0.099921 0.74879h2.0046l1.6139-9.8981h-2.0897zm-2.6495 8.0391c-0.72104 0-1.0862-0.53476-1.0862-1.587 0-1.5824 0.68249-2.704 1.6432-2.704 0.72813 0 1.1229 0.55389 1.1229 1.5765 0 1.596-0.6939 2.7145-1.6799 2.7145z" fill="#006"/>
<polyline points="27.449 35.621 25.331 35.621 26.545 28.013 23.835 35.621 22.391 35.621 22.213 28.057 20.937 35.621 18.954 35.621 20.61 25.724 23.657 25.724 23.742 31.851 25.798 25.724 29.088 25.724 27.449 35.621" fill="#fff"/>
<path d="m32.667 32.036c-0.22205-0.025906-0.32012-0.032999-0.47278-0.032999-1.2009 0-1.8085 0.4114-1.8085 1.2247 0 0.50053 0.29668 0.82096 0.75959 0.82096 0.8629 0 1.4849-0.82158 1.5216-2.0126zm1.5408 3.5858h-1.7551l0.040092-0.8336c-0.53538 0.65843-1.2499 0.97331-2.2205 0.97331-1.1482 0-1.9352-0.89744-1.9352-2.1995 0-1.9608 1.3693-3.1025 3.7196-3.1025 0.24024 0 0.54803 0.021896 0.86352 0.062605 0.065381-0.26646 0.082651-0.37964 0.082651-0.52366 0-0.53261-0.36885-0.73091-1.3585-0.73091-1.0368-0.012336-1.8914 0.24579-2.243 0.36083 0.022513-0.13323 0.2939-1.81 0.2939-1.81 1.0557-0.30963 1.752-0.42652 2.5357-0.42652 1.8192 0 2.7827 0.81757 2.7811 2.3608 0.0033924 0.41356-0.064764 0.9252-0.17147 1.595-0.18411 1.1648-0.57887 3.6666-0.63284 4.2741z" fill="#fff"/>
<path d="m62.624 25.99-0.34695 2.148c-0.7565-0.38026-1.3045-0.53415-1.8923-0.53415-1.5818 0-2.6914 1.5287-2.6914 3.7091 0 1.5022 0.74571 2.4098 1.9775 2.4098 0.52181 0 1.0982-0.16129 1.7992-0.50763l-0.37224 2.2556c-0.77994 0.21249-1.2848 0.2902-1.872 0.2902-2.2812 0-3.702-1.6401-3.702-4.2735 0-3.5386 1.9642-6.0116 4.7719-6.0116 0.9252 0 2.0179 0.39198 2.3284 0.5141" fill="#fff"/>
<path d="m66.041 32.036c-0.22081-0.025906-0.31919-0.032999-0.47154-0.032999-1.2003 0-1.8081 0.4114-1.8081 1.2247 0 0.50053 0.29637 0.82096 0.75897 0.82096 0.86259 0 1.4853-0.82158 1.5207-2.0126zm1.542 3.5858h-1.7551l0.039784-0.8336c-0.53538 0.65843-1.2499 0.97331-2.2196 0.97331-1.1494 0-1.9355-0.89744-1.9355-2.1995 0-1.9608 1.3681-3.1025 3.719-3.1025 0.24024 0 0.54741 0.021896 0.86259 0.062605 0.065689-0.26646 0.08296-0.37964 0.08296-0.52366 0-0.53261-0.36792-0.73091-1.3582-0.73091-1.0359-0.012336-1.8902 0.24579-2.2424 0.36083 0.022205-0.13323 0.2939-1.81 0.2939-1.81 1.0557-0.30963 1.7514-0.42652 2.535-0.42652 1.8192 0 2.7836 0.81757 2.7811 2.3608 0.0043176 0.41356-0.064456 0.9252-0.17116 1.595-0.1835 1.1648-0.57825 3.6666-0.63253 4.2741z" fill="#fff"/>
<path d="m43.623 35.499c-0.57948 0.18257-1.0319 0.26183-1.5216 0.26183-1.0831 0-1.6746-0.62266-1.6746-1.7677-0.014803-0.35713 0.15636-1.2916 0.29113-2.1462 0.12182-0.7528 0.91841-5.4935 0.91841-5.4935h2.1061l-0.24641 1.2182h1.0812l-0.28805 1.9343h-1.0846c-0.24456 1.5321-0.59336 3.438-0.59768 3.6909 0 0.41634 0.22236 0.59644 0.72597 0.59644 0.24148 0 0.42806-0.023747 0.57146-0.076175l-0.28126 1.7819" fill="#fff"/>
<path d="m50.081 35.436c-0.72381 0.22174-1.4226 0.32629-2.1616 0.32567-2.358-0.001542-3.5861-1.2336-3.5861-3.591 0-2.7525 1.563-4.7787 3.6841-4.7787 1.7378 0 2.8465 1.1343 2.8465 2.9147 0 0.58997-0.0771 1.1658-0.25906 1.979h-4.1942c-0.14217 1.1679 0.6057 1.6552 1.8304 1.6552 0.75342 0 1.4334-0.15605 2.1903-0.50763l-0.35034 2.0027zm-1.1839-4.7737c0.011411-0.16839 0.22328-1.4368-0.98009-1.4368-0.67046 0-1.1506 0.51225-1.3459 1.4368h2.3259z" fill="#fff"/>
<path d="m35.478 30.117c0 1.0193 0.49406 1.7199 1.6139 2.2482 0.85766 0.40339 0.99058 0.52274 0.99058 0.8885 0 0.50177-0.37841 0.72813-1.2169 0.72813-0.63191 0-1.22-0.098071-1.8985-0.31673 0 0-0.27756 1.7739-0.29051 1.8575 0.4811 0.10547 0.9107 0.20169 2.2041 0.23901 2.2359 0 3.2684-0.85087 3.2684-2.6905 0-1.1065-0.43238-1.7554-1.4936-2.2427-0.88819-0.40863-0.99027-0.49899-0.99027-0.87524 0-0.43515 0.35219-0.65905 1.0371-0.65905 0.41511 0 0.98349 0.04626 1.522 0.12213l0.30161-1.8667c-0.54864-0.08666-1.3801-0.15759-1.8646-0.15759-2.3704 0-3.1904 1.2379-3.1833 2.725" fill="#fff"/>
<path d="m78.797 35.621h-2.004l0.099305-0.7491c-0.58133 0.62081-1.1769 0.88881-1.9534 0.88881-1.5395 0-2.5582-1.3267-2.5582-3.3406 0-2.6775 1.5793-4.9344 3.4473-4.9344 0.82158 0 1.4436 0.33554 2.0231 1.0979l0.47-2.8604h2.0894l-1.6135 9.8978zm-3.1256-1.86c0.98719 0 1.6799-1.1179 1.6799-2.7124 0-1.023-0.39444-1.5787-1.1226-1.5787-0.96097 0-1.6432 1.122-1.6432 2.705 0 1.0535 0.36545 1.5861 1.0859 1.5861z" fill="#fff"/>
<path d="m69.492 27.572c-0.26492 2.4916-0.73615 5.0149-1.1047 7.5083l-0.096529 0.54124h2.119c0.75805-4.9227 0.94031-5.8833 2.1295-5.7634 0.18905-1.0075 0.54155-1.8899 0.804-2.3346-0.88727-0.18504-1.3829 0.31642-2.0324 1.2694 0.051811-0.41233 0.14526-0.81232 0.12768-1.221h-1.9466" fill="#fff"/>
<path d="m52.052 27.572c-0.26615 2.4916-0.738 5.0149-1.1059 7.5083l-0.096221 0.54124h2.1196c0.75835-4.9227 0.94-5.8833 2.1273-5.7634 0.19028-1.0075 0.5434-1.8899 0.80523-2.3346-0.88634-0.18504-1.3829 0.31642-2.0311 1.2694 0.051194-0.41233 0.14526-0.81232 0.12675-1.221h-1.9457" fill="#fff"/>
</g>
</g>
</g>
</svg>
