<svg id="Layer_1" data-name="Layer 1" xmlns="http://www.w3.org/2000/svg" viewBox="0 0 49.59 22.5"><defs><style>.cls-1{fill:#34495f;}.cls-2{fill:#ffcd37;}.cls-3{fill:#ffdd67;}</style></defs><title>ssl-seal-trimmed</title><g id="Oct-16---Current"><g id="tc-d-checkout-EUsepa-v1Launch-finalPolish"><g id="Group-6"><g id="ssl-secured-seal"><g id="ssl-secured"><g id="Group-2"><path id="Path-Copy-16" class="cls-1" d="M8.46.08a.81.81,0,0,1,.71,0l7.94,4.14a.83.83,0,0,1,.52.78c0,4.29-.55,7.61-1.86,10.38a17.14,17.14,0,0,1-6.52,7,.74.74,0,0,1-.87,0,17.12,17.12,0,0,1-6.51-7C.55,12.61,0,9.29,0,5a.83.83,0,0,1,.52-.78Z"/><path id="Path-Copy-17" class="cls-2" d="M8.82,21.7V.8l8,4.13c0,4.2-.61,7.44-1.88,10.09A16.76,16.76,0,0,1,8.82,21.7Z"/><path id="Path-Copy-18" class="cls-3" d="M8.82,21.7V.8L.8,4.93c0,4.2.61,7.44,1.89,10.09A16.62,16.62,0,0,0,8.82,21.7Z"/><path id="Page-1-Copy-9" class="cls-1" d="M12.35,9.14h-1V8a2.26,2.26,0,0,0-.77-1.66A2.71,2.71,0,0,0,7,6.29,2.25,2.25,0,0,0,6.27,8V9.14h-1a.47.47,0,0,0-.47.47V14.8a.47.47,0,0,0,.47.47h7.07a.47.47,0,0,0,.47-.47V9.61a.47.47,0,0,0-.47-.47ZM7,7.93A1.68,1.68,0,0,1,8.82,6.4a1.67,1.67,0,0,1,1.77,1.53V9.1H7.05V7.93Zm2.18,4.61.12,1.19H8.28l.13-1.19a1,1,0,0,1-.62-.91,1,1,0,0,1,2.05,0,1,1,0,0,1-.62.91Z"/></g><path id="SSL-Copy" class="cls-1" d="M25.68,4.72l-1.28.92A1.25,1.25,0,0,0,23.12,5c-.57,0-.82.26-.82.62s.37.67,1.28.93c1.56.45,2.15,1,2.15,2.27S24.86,11,23.22,11a3.28,3.28,0,0,1-2.87-1.18l1.29-.91a1.66,1.66,0,0,0,1.44.65c.66,0,.92-.28.92-.63s-.29-.62-1.35-1c-1.46-.47-2.08-1.14-2.08-2.3s.78-2.07,2.53-2.07A2.89,2.89,0,0,1,25.68,4.72Zm6,0-1.28.92A1.25,1.25,0,0,0,29.13,5c-.57,0-.82.26-.82.62s.37.67,1.28.93c1.56.45,2.16,1,2.16,2.27S30.87,11,29.23,11a3.28,3.28,0,0,1-2.87-1.18l1.29-.91a1.67,1.67,0,0,0,1.44.65c.67,0,.93-.28.93-.63s-.3-.62-1.36-1c-1.46-.47-2.08-1.14-2.08-2.3s.78-2.07,2.53-2.07A2.88,2.88,0,0,1,31.69,4.72Zm2.72-1.08V9.41h2.82v1.44H32.68V3.64Z"/><path id="SECURED-Copy-6" class="cls-1" d="M23.94,14.64l-.88.64a.88.88,0,0,0-.89-.46c-.4,0-.57.18-.57.43s.26.47.89.65c1.08.31,1.49.71,1.49,1.57S23.37,19,22.24,19a2.29,2.29,0,0,1-2-.82l.9-.63a1.14,1.14,0,0,0,1,.45c.46,0,.64-.2.64-.44s-.2-.43-.93-.67c-1-.32-1.45-.79-1.45-1.59s.54-1.44,1.76-1.44A2,2,0,0,1,23.94,14.64Zm.69-.75h3.14v1H25.83v.91h1.73v1H25.83v1.09h1.94v1H24.63Zm7.44,1.54H30.93a.67.67,0,0,0-.69-.61c-.5,0-.76.36-.76,1.18v.78c0,.78.26,1.18.76,1.18a.63.63,0,0,0,.69-.62h1.14A1.67,1.67,0,0,1,30.24,19c-1.13,0-2-.69-2-2.18V16c0-1.51.83-2.18,2-2.18A1.71,1.71,0,0,1,32.07,15.43Zm3.38-1.54h1.2v3a2,2,0,1,1-3.93,0v-3h1.2v3c0,.73.22,1.09.76,1.09s.77-.36.77-1.09Zm6,5H40.16L39.33,17h-.62v1.88h-1.2v-5h1.88c1.14,0,1.88.53,1.88,1.57a1.36,1.36,0,0,1-.79,1.33ZM38.71,16h.53c.49,0,.83-.07.83-.54s-.34-.57-.83-.57h-.53ZM42,13.89h3.15v1H43.21v.91h1.73v1H43.21v1.09h1.95v1H42Zm5.61,5H45.77v-5h1.85c1.14,0,2,.56,2,2.14v.72C49.59,18.31,48.76,18.88,47.62,18.88Zm0-1c.62,0,.77-.47.77-1.14V16c0-.68-.15-1.14-.77-1.14H47v3Z"/></g></g></g></g></g></svg>