<?xml version="1.0" encoding="UTF-8"?>
<svg version="1.1" viewBox="0 0 100 60" xmlns="http://www.w3.org/2000/svg">
<title>Visa-dark</title>
<desc>Created with Sketch.</desc>
<g fill="none" fill-rule="evenodd">
<g transform="translate(-130 -164)">
<g transform="translate(130 164)">
<rect width="100" height="60" rx="4" fill="#26337A"/>
<polyline points="41.49 39.547 44.565 20.473 49.48 20.473 46.405 39.547 41.49 39.547" fill="#fff"/>
<path d="m64.233 20.941c-0.97178-0.38282-2.5002-0.80028-4.4041-0.80028-4.8592 0-8.2797 2.5885-8.3081 6.2949-0.030922 2.7417 2.4408 4.2707 4.3043 5.182 1.9152 0.93408 2.5586 1.5318 2.551 2.367-0.013212 1.2775-1.5287 1.8628-2.9418 1.8628-1.9677 0-3.0132-0.28817-4.6295-1.0003l-0.63221-0.30366-0.6873 4.2696c1.1461 0.53127 3.2707 0.99239 5.4757 1.0166 5.1642 0 8.5198-2.5572 8.5591-6.5152 0.01771-2.1741-1.292-3.822-4.1283-5.1825-1.7176-0.88451-2.7717-1.4704-2.7596-2.3656 0.0011244-0.79268 0.89054-1.6414 2.8156-1.6414 1.6076-0.025916 2.7714 0.34535 3.6783 0.73296l0.44134 0.21803 0.66566-4.1349" fill="#fff"/>
<path d="m70.777 32.784c0.40732-1.0963 1.9579-5.3315 1.9579-5.3315-0.028673 0.050422 0.40507-1.1048 0.65329-1.8197l0.33171 1.6451s0.94311 4.5527 1.1374 5.5062h-4.0803zm6.0635-12.292h-3.7983c-1.1781 0-2.0599 0.33746-2.5761 1.5811l-7.2989 17.48h5.1622s0.84219-2.3515 1.0333-2.8676c0.56306 0 5.5791 0.0098591 6.2951 0.0098591 0.1473 0.66563 0.59847 2.8577 0.59847 2.8577h4.5618l-3.9776-19.061z" fill="#fff"/>
<path d="m37.367 20.489-4.8106 13.004-0.51527-2.6434c-0.89645-3.0456-3.687-6.3468-6.8084-8.0008l4.401 16.682 5.2016-0.0030985 7.74-19.038h-5.2083" fill="#fff"/>
<path d="m28.091 20.476h-7.9258l-0.065217 0.39521c6.1672 1.58 10.248 5.3938 11.941 9.9783l-1.7223-8.7642c-0.29713-1.2087-1.1607-1.567-2.228-1.6093" fill="#ED982D"/>
</g>
</g>
</g>
</svg>
